<svg width="24" height="22" viewBox="0 0 24 22" fill="none" xmlns="http://www.w3.org/2000/svg">
<g filter="url(#filter0_dd_840_2043)">
<path d="M17 1H7C5.93913 1 4.92172 1.42143 4.17157 2.17157C3.42143 2.92172 3 3.93913 3 5V15C3 16.0609 3.42143 17.0783 4.17157 17.8284C4.92172 18.5786 5.93913 19 7 19H17C18.0609 19 19.0783 18.5786 19.8284 17.8284C20.5786 17.0783 21 16.0609 21 15V5C21 3.93913 20.5786 2.92172 19.8284 2.17157C19.0783 1.42143 18.0609 1 17 1Z" stroke="white" stroke-width="1.5" stroke-linejoin="round"/>
<path d="M12 14C13.0609 14 14.0783 13.5786 14.8284 12.8284C15.5786 12.0783 16 11.0609 16 10C16 8.93913 15.5786 7.92172 14.8284 7.17157C14.0783 6.42143 13.0609 6 12 6C10.9391 6 9.92172 6.42143 9.17157 7.17157C8.42143 7.92172 8 8.93913 8 10C8 11.0609 8.42143 12.0783 9.17157 12.8284C9.92172 13.5786 10.9391 14 12 14V14Z" stroke="white" stroke-width="1.5" stroke-linejoin="round"/>
<path d="M17.5 5.5C17.7652 5.5 18.0196 5.39464 18.2071 5.20711C18.3946 5.01957 18.5 4.76522 18.5 4.5C18.5 4.23478 18.3946 3.98043 18.2071 3.79289C18.0196 3.60536 17.7652 3.5 17.5 3.5C17.2348 3.5 16.9804 3.60536 16.7929 3.79289C16.6054 3.98043 16.5 4.23478 16.5 4.5C16.5 4.76522 16.6054 5.01957 16.7929 5.20711C16.9804 5.39464 17.2348 5.5 17.5 5.5Z" fill="white"/>
</g>
<defs>
<filter id="filter0_dd_840_2043" x="-1.75" y="0.25" width="27.5" height="27.5" filterUnits="userSpaceOnUse" color-interpolation-filters="sRGB">
<feFlood flood-opacity="0" result="BackgroundImageFix"/>
<feColorMatrix in="SourceAlpha" type="matrix" values="0 0 0 0 0 0 0 0 0 0 0 0 0 0 0 0 0 0 127 0" result="hardAlpha"/>
<feOffset dy="4"/>
<feGaussianBlur stdDeviation="2"/>
<feComposite in2="hardAlpha" operator="out"/>
<feColorMatrix type="matrix" values="0 0 0 0 0 0 0 0 0 0 0 0 0 0 0 0 0 0 0.25 0"/>
<feBlend mode="normal" in2="BackgroundImageFix" result="effect1_dropShadow_840_2043"/>
<feColorMatrix in="SourceAlpha" type="matrix" values="0 0 0 0 0 0 0 0 0 0 0 0 0 0 0 0 0 0 127 0" result="hardAlpha"/>
<feOffset dy="4"/>
<feGaussianBlur stdDeviation="2"/>
<feComposite in2="hardAlpha" operator="out"/>
<feColorMatrix type="matrix" values="0 0 0 0 0 0 0 0 0 0 0 0 0 0 0 0 0 0 0.25 0"/>
<feBlend mode="normal" in2="effect1_dropShadow_840_2043" result="effect2_dropShadow_840_2043"/>
<feBlend mode="normal" in="SourceGraphic" in2="effect2_dropShadow_840_2043" result="shape"/>
</filter>
</defs>
</svg>
